<svg width="93" height="124" viewBox="0 0 93 124" fill="none" xmlns="http://www.w3.org/2000/svg">
<path d="M30.2 3.79995C29.5334 6.46662 30.0667 7.66662 32.4667 9.26662C39.2667 13.9333 47.8 23.8 49.4 29.1333C51.2667 35.6666 51.5334 47 49.6667 47C49 47 46.8667 46.3333 45 45.4C42.3334 44.2 41.6667 43 41.6667 39.2666C41.6667 33.1333 39 24.3333 37.1334 24.3333C33.5334 24.4666 32.2 26.4666 33.6667 30.2C34.3334 32.2 35 35.8 35 38.2C35 42.4666 34.7334 42.7333 29 43.4C16.4667 45.1333 6.46671 53.5333 2.33337 65.5333C1.26671 68.8666 0.333374 76.0666 0.333374 81.6666C0.333374 99.2666 9.00004 112.333 25.6667 120.2C31.9334 123.133 34.8667 123.667 45 123.667C54.8667 123.667 58.2 123 63.2667 120.467C85.5334 109.533 97.4 82.3333 90.3334 58.3333C83.8 35.6666 65 14.6 41.2667 3.53329C32.4667 -0.466714 31.2667 -0.466714 30.2 3.79995ZM61.5334 25.1333C79.4 41.9333 86.2 56.0666 85.4 75.1333C84.7334 89.1333 80.6 98.6 71.5334 107C62.0667 115.667 55.4 118.067 42.3334 117.4C33.5334 117 30.2 116.067 25.2667 113.267C13.6667 106.467 5.66671 93.2666 5.66671 81C5.66671 74.4666 9.40004 63.5333 13.2667 59C20.3334 50.4666 32.3334 47.4 42.3334 51.5333C44.8667 52.6 47 54.4666 47 55.6666C47 56.7333 44.6 62.3333 41.8 68.0666C35.5334 80.3333 34.2 86.4666 36.3334 92.8666C40.7334 106.467 58.6 106.2 64.3334 92.3333C66.7334 86.7333 65.5334 70.3333 62.2 63C59.5334 57 59.4 57 57.8 60.2C56.3334 62.7333 56.4667 64.7333 58.3334 71.4C61.8 83.6666 59.8 92.3333 52.4667 96.2C49.8 97.6666 48.8667 97.5333 45.8 95.4C39.9334 91 40.4667 84.8666 47.6667 70.0666C58.4667 47.6666 60.0667 34.3333 53 21.9333C51.2667 18.8666 50.3334 16.3333 51 16.3333C51.6667 16.3333 56.4667 20.3333 61.5334 25.1333Z" fill="white"/>
<path d="M26.4667 62.5999C21.6667 72.1999 19 81.9333 19 89.5333C19 94.1999 19.4 95.1333 21.1333 94.4666C22.3333 94.0666 23.6667 93.6666 24.2 93.6666C24.8667 93.6666 25.6667 89.7999 25.9333 84.9999C26.4667 78.3333 27.9333 73.7999 32.0667 65.6666L37.5333 54.9999H33.8C30.7333 54.9999 29.6667 56.0666 26.4667 62.5999Z" fill="white"/>
</svg>
