<svg width="122" height="108" viewBox="0 0 122 108" fill="none" xmlns="http://www.w3.org/2000/svg">
<path d="M45.5253 1.69526C25.0598 6.63586 9.18859 20.3597 3.13247 38.1093C0.835326 44.6968 0 56.0419 0 77.2681V107.095H34.0395C58.264 107.095 71.2115 106.363 78.7295 104.35C122.375 93.0049 135.949 42.8669 103.163 15.2362C87.9181 2.4272 64.5289 -3.06236 45.5253 1.69526ZM71.0027 33.9007V44.8798H83.5326H96.0625V53.1141V61.3484H83.5326H71.2115L70.5851 72.6935L69.9586 84.2216L61.1876 84.7705L52.2079 85.3195V73.4255V61.3484H38.6338H25.0598V53.1141V44.8798H38.6338H52.2079V33.9007V22.9215H61.6053H71.0027V33.9007Z" fill="white"/>
</svg>
