<svg width="122" height="98" viewBox="0 0 122 98" fill="none" xmlns="http://www.w3.org/2000/svg">
<mask id="mask0_51_97" style="mask-type:luminance" maskUnits="userSpaceOnUse" x="0" y="0" width="122" height="98">
<path d="M60.7341 0.870972H0.0600586V98H60.7341H121.408V0.870972H60.7341Z" fill="white"/>
</mask>
<g mask="url(#mask0_51_97)">
<path fill-rule="evenodd" clip-rule="evenodd" d="M72.8441 0.870972C46.0671 0.870972 24.2821 22.659 24.2821 49.436H36.4221C36.4221 29.353 52.7611 13.013 72.8441 13.013C92.9281 13.013 109.268 29.353 109.268 49.436C109.268 69.518 92.9281 85.858 72.8441 85.858V98C99.6231 98 121.408 76.213 121.408 49.436C121.408 22.659 99.6231 0.870972 72.8441 0.870972Z" fill="white"/>
</g>
<mask id="mask1_51_97" style="mask-type:luminance" maskUnits="userSpaceOnUse" x="0" y="0" width="122" height="98">
<path d="M60.7341 0.870972H0.0600586V98H60.7341H121.408V0.870972H60.7341Z" fill="white"/>
</mask>
<g mask="url(#mask1_51_97)">
<path fill-rule="evenodd" clip-rule="evenodd" d="M97.125 49.4359C97.125 36.0469 86.233 25.1539 72.844 25.1539C59.456 25.1539 48.563 36.0469 48.563 49.4359H60.704C60.704 42.7419 66.15 37.2959 72.844 37.2959C79.539 37.2959 84.985 42.7419 84.985 49.4359C84.985 56.1299 79.539 61.5759 72.844 61.5759H0V73.7179H72.844C86.233 73.7179 97.125 62.8249 97.125 49.4359Z" fill="white"/>
</g>
</svg>
