<svg width="358" height="247" viewBox="0 0 358 247" fill="none" xmlns="http://www.w3.org/2000/svg">
<path d="M210.267 5.77019e-05C165.53 5.77019e-05 165.53 67.1067 120.792 67.1067H67.5095C59.0375 67.1067 51.2922 71.8934 47.5028 79.4721L31.3162 111.844H120.792C165.53 111.844 165.53 44.7374 210.267 44.7374H255.004L269.28 16.1867C272.998 8.74941 267.591 5.77019e-05 259.276 5.77019e-05H210.267Z" fill="white" fill-opacity="0.962085"/>
<path d="M237.109 134.213C192.372 134.213 192.372 201.32 147.635 201.32H102.896L88.6212 229.872C84.9026 237.308 90.3092 246.057 98.6239 246.057H147.635C192.372 246.057 192.372 178.95 237.109 178.95H290.391C298.864 178.95 306.609 174.164 310.399 166.585L326.584 134.213H237.109Z" fill="white" fill-opacity="0.962085"/>
<path d="M223.688 67.1067C178.951 67.1067 178.951 134.213 134.213 134.213H22.3681L6.10352e-05 178.951H134.213C178.951 178.951 178.951 111.844 223.688 111.844H335.532L357.901 67.1067H223.688Z" fill="white" fill-opacity="0.962085"/>
</svg>
